REM DIRINDEX 1\2,1\3,1\4,1\5
REM DIRNAME cjc093,folder01,folder02,folder03,folder04
TITLE ""
FILE "Round-03-050-051.mp3" MP3
  TRACK 01 AUDIO
    TITLE "0:"
    INDEX 01 00:00:00
  TRACK 02 AUDIO
    TITLE "5:cjc093_0572"
    INDEX 01 00:00:05
  TRACK 03 AUDIO
    TITLE "0:"
    INDEX 01 00:01:38
  TRACK 04 AUDIO
    TITLE "2:cjc093_0573"
    INDEX 01 00:02:16
  TRACK 05 AUDIO
    TITLE "0:"
    INDEX 01 00:03:41
  TRACK 06 AUDIO
    TITLE "3:cjc093_0574"
    INDEX 01 00:04:09
  TRACK 07 AUDIO
    TITLE "0:"
    INDEX 01 00:06:49
  TRACK 08 AUDIO
    TITLE "4:cjc093_0575"
    INDEX 01 00:07:02
  TRACK 09 AUDIO
    TITLE "0:"
    INDEX 01 00:10:53
  TRACK 10 AUDIO
    TITLE "2:cjc093_0576"
    INDEX 01 00:11:64
  TRACK 11 AUDIO
    TITLE "0:"
    INDEX 01 00:12:73
  TRACK 12 AUDIO
    TITLE "3:cjc093_0577"
    INDEX 01 00:13:32
  TRACK 13 AUDIO
    TITLE "0:"
    INDEX 01 00:14:29
  TRACK 14 AUDIO
    TITLE "4:cjc093_0578"
    INDEX 01 00:15:03
  TRACK 15 AUDIO
    TITLE "0:"
    INDEX 01 00:17:35
  TRACK 16 AUDIO
    TITLE "3:cjc093_0579"
    INDEX 01 00:18:35
  TRACK 17 AUDIO
    TITLE "0:"
    INDEX 01 00:19:56
  TRACK 18 AUDIO
    TITLE "4:cjc093_0580"
    INDEX 01 00:20:28
  TRACK 19 AUDIO
    TITLE "0:"
    INDEX 01 00:22:50
  TRACK 20 AUDIO
    TITLE "2:cjc093_0581"
    INDEX 01 00:23:59
  TRACK 21 AUDIO
    TITLE "0:"
    INDEX 01 00:25:01
  TRACK 22 AUDIO
    TITLE "3:cjc093_0582"
    INDEX 01 00:25:39
  TRACK 23 AUDIO
    TITLE "0:"
    INDEX 01 00:26:56
  TRACK 24 AUDIO
    TITLE "4:cjc093_0583"
    INDEX 01 00:27:02
  TRACK 25 AUDIO
    TITLE "0:"
    INDEX 01 00:30:32
  TRACK 26 AUDIO
    TITLE "3:cjc093_0584"
    INDEX 01 00:31:41
  TRACK 27 AUDIO
    TITLE "0:"
    INDEX 01 00:32:54
  TRACK 28 AUDIO
    TITLE "4:cjc093_0585"
    INDEX 01 00:33:15
  TRACK 29 AUDIO
    TITLE "0:"
    INDEX 01 00:36:56
  TRACK 30 AUDIO
    TITLE "2:cjc093_0586"
    INDEX 01 00:37:67
  TRACK 31 AUDIO
    TITLE "0:"
    INDEX 01 00:39:07
  TRACK 32 AUDIO
    TITLE "3:cjc093_0587"
    INDEX 01 00:39:49
  TRACK 33 AUDIO
    TITLE "0:"
    INDEX 01 00:40:50
  TRACK 34 AUDIO
    TITLE "4:cjc093_0588"
    INDEX 01 00:41:16
  TRACK 35 AUDIO
    TITLE "0:"
    INDEX 01 00:44:40
  TRACK 36 AUDIO
    TITLE "2:cjc093_0589"
    INDEX 01 00:45:53
  TRACK 37 AUDIO
    TITLE "0:"
    INDEX 01 00:46:49
  TRACK 38 AUDIO
    TITLE "3:cjc093_0590"
    INDEX 01 00:47:11
  TRACK 39 AUDIO
    TITLE "0:"
    INDEX 01 00:49:25
  TRACK 40 AUDIO
    TITLE "4:cjc093_0591"
    INDEX 01 00:49:47
  TRACK 41 AUDIO
    TITLE "0:"
    INDEX 01 00:52:26
  TRACK 42 AUDIO
    TITLE "2:cjc093_0592"
    INDEX 01 00:53:37
  TRACK 43 AUDIO
    TITLE "0:"
    INDEX 01 00:54:38
  TRACK 44 AUDIO
    TITLE "3:cjc093_0593"
    INDEX 01 00:55:06
  TRACK 45 AUDIO
    TITLE "0:"
    INDEX 01 00:57:29
  TRACK 46 AUDIO
    TITLE "4:cjc093_0594"
    INDEX 01 00:57:45
  TRACK 47 AUDIO
    TITLE "0:"
    INDEX 01 00:59:47
  TRACK 48 AUDIO
    TITLE "3:cjc093_0595"
    INDEX 01 01:00:57
  TRACK 49 AUDIO
    TITLE "0:"
    INDEX 01 01:02:32
  TRACK 50 AUDIO
    TITLE "4:cjc093_0596"
    INDEX 01 01:03:04
  TRACK 51 AUDIO
    TITLE "0:"
    INDEX 01 01:06:51
  TRACK 52 AUDIO
    TITLE "2:cjc093_0597"
    INDEX 01 01:07:63
  TRACK 53 AUDIO
    TITLE "0:"
    INDEX 01 01:08:62
  TRACK 54 AUDIO
    TITLE "3:cjc093_0598"
    INDEX 01 01:09:24
  TRACK 55 AUDIO
    TITLE "0:"
    INDEX 01 01:11:47
  TRACK 56 AUDIO
    TITLE "4:cjc093_0599"
    INDEX 01 01:11:68
  TRACK 57 AUDIO
    TITLE "0:"
    INDEX 01 01:15:11
  TRACK 58 AUDIO
    TITLE "3:cjc093_0600"
    INDEX 01 01:16:22
  TRACK 59 AUDIO
    TITLE "0:"
    INDEX 01 01:17:22
  TRACK 60 AUDIO
    TITLE "4:cjc093_0601"
    INDEX 01 01:17:67
  TRACK 61 AUDIO
    TITLE "0:"
    INDEX 01 01:21:02
  TRACK 62 AUDIO
    TITLE "3:cjc093_0602"
    INDEX 01 01:22:07
  TRACK 63 AUDIO
    TITLE "0:"
    INDEX 01 01:23:65
  TRACK 64 AUDIO
    TITLE "4:cjc093_0603"
    INDEX 01 01:24:24
  TRACK 65 AUDIO
    TITLE "0:"
    INDEX 01 01:27:67
